<svg version="1.2" xmlns="http://www.w3.org/2000/svg" viewBox="0 0 67 70" width="67" height="70">
	<title>c51cae06-8d38-4c0a-8622-fbb862aca6f2 (6)</title>
	<style>
		tspan { white-space:pre } 
		.s0 { fill: none;stroke: #ffffff;stroke-width: 2 } 
		.s1 { fill: none;stroke: #f6f7fc;stroke-width: 2 } 
		.s2 { fill: #ffffff } 
	</style>
	<g id="header">
		<g id="logo.svg">
			<path id="Rectangle 1" class="s0" d="m5 67.9l28.9-55 28.8 55z"/>
			<path id="Ellipse 1" class="s1" d="m33.5 0c18.5 0 33.5 14.9 33.5 33.2 0 18.4-15 33.2-33.5 33.2-18.5 0-33.5-14.8-33.5-33.2 0-18.3 15-33.2 33.5-33.2z"/>
			<path id="Ellipse 1 copy 8" class="s2" d="m33.9 62.9c1.9 0 3.6 1.6 3.6 3.5 0 2-1.7 3.6-3.6 3.6-2 0-3.6-1.6-3.6-3.6 0-1.9 1.6-3.5 3.6-3.5z"/>
			<path id="Ellipse 1 copy 9" class="s2" d="m60.5 62.9c2 0 3.6 1.6 3.6 3.5 0 2-1.6 3.6-3.6 3.6-2 0-3.6-1.6-3.6-3.6 0-1.9 1.6-3.5 3.6-3.5z"/>
			<path id="Ellipse 1 copy 11" class="s2" d="m5 62.9c2 0 3.6 1.6 3.6 3.5 0 2-1.6 3.6-3.6 3.6-1.9 0-3.6-1.6-3.6-3.6 0-1.9 1.7-3.5 3.6-3.5z"/>
		</g>
	</g>
</svg>